<svg xmlns="http://www.w3.org/2000/svg" width="1440" height="316" fill="none" xmlns:v="https://vecta.io/nano"><style><![CDATA[.B{fill:#fff}.C{opacity:.1}.D{opacity:.05}]]></style><path d="M1348.87 201.397c-21.66-11.209-47.19-10.628-68.29 1.557-21.11 12.185-34.38 34.005-35.5 58.365l-2.7 58.703a44.82 44.82 0 0 0 7.63 27.26c5.45 8.094 13.18 14.092 22.37 17.352a44.77 44.77 0 0 0 28.3.585c9.31-2.868 17.28-8.542 23.05-16.405l.38-.529c14.61-19.613 36.88-32.366 61.21-35.028 6.27-.687 12.21-2.634 17.56-5.723 2.91-1.679 5.65-3.699 8.16-6.034 7.15-6.632 11.86-15.205 13.65-24.795a44.84 44.84 0 0 0-3.84-28.052 44.83 44.83 0 0 0-19.79-20.248l-52.19-27.008zm-124.09 70.192c6.32-7.814 8.72-17.925 6.74-28.472-1.88-10.037-7.56-19.316-15.99-26.129-8.43-6.807-18.7-10.408-28.91-10.145-10.73.279-20.12 4.737-26.43 12.549-12.7 15.699-8.55 40.186 9.26 54.595 14.19 11.457 32.83 13.104 46.24 5.362a32.66 32.66 0 0 0 9.09-7.76zm33.41-64.054c20.7-11.952 26.74-40.386 13.46-63.384-13.28-23.004-40.92-31.994-61.63-20.042-20.7 11.951-26.73 40.387-13.45 63.391 13.28 22.998 40.92 31.986 61.62 20.035zm70.28-25.965v-.001c3.74-.756 7.23-2.098 10.41-3.935 14.85-8.571 23-27.862 18.82-47.857-2.41-11.511-8.52-21.62-17.22-28.464-9.1-7.166-19.91-9.944-30.43-7.821s-19.34 8.862-24.83 18.97c-5.24 9.657-6.8 21.315-4.39 32.824 5.08 24.279 26.45 40.556 47.64 36.284zm75.38-50.687l-.01-.002c-20.09-2.216-38.6 14.459-41.26 37.179-2.64 22.721 11.54 43.025 31.62 45.261 7.32.817 14.44-.879 20.65-4.467 10.83-6.252 18.93-18.253 20.62-32.707 2.65-22.72-11.54-43.025-31.62-45.264z" class="B C"/><path d="M208.094 270.896a40.81 40.81 0 0 0-28.448-27.18c-13.557-3.633-27.847-.15-38.225 9.315l-25.008 22.806c-4.15 3.783-6.914 8.699-7.993 14.211a25.81 25.81 0 0 0 2.044 16.178 25.78 25.78 0 0 0 11.284 11.761c4.962 2.626 10.52 3.561 16.07 2.707l.372-.058c13.937-2.039 28.199 1.835 39.191 10.659 2.835 2.276 6.049 3.903 9.486 4.824a26.12 26.12 0 0 0 5.78.867 25.77 25.77 0 0 0 15.654-4.543c4.629-3.18 8.039-7.671 9.863-12.986s1.887-10.954.186-16.307l-10.256-32.254zm-79.124-21.952c5.759-.605 10.852-3.747 14.342-8.848 3.322-4.853 4.789-10.945 4.13-17.154s-3.377-11.853-7.644-15.906c-4.483-4.255-10.122-6.264-15.873-5.653-11.568 1.22-19.852 12.882-18.466 26.004 1.116 10.448 8.035 18.708 16.649 21.017 2.2.589 4.51.79 6.862.54zm39.694-12.479c13.299 3.564 27.339-5.557 31.297-20.331s-3.638-29.698-16.937-33.261-27.336 5.56-31.296 20.337 3.639 29.692 16.936 33.255zm39.198 18.049h.001c1.831 1.215 3.797 2.088 5.84 2.636 9.538 2.555 20.715-1.98 27.154-11.827 3.708-5.668 5.335-12.276 4.58-18.605-.788-6.626-4.058-12.157-9.207-15.578s-11.485-4.266-17.837-2.384c-6.068 1.797-11.45 5.91-15.156 11.579-7.818 11.957-5.744 27.29 4.625 34.179zm51.341 10.056l-.002-.005c-7.281-9.085-21.61-9.832-31.946-1.662-10.33 8.177-12.821 22.223-5.555 31.31 2.649 3.316 6.238 5.523 10.23 6.593 6.957 1.864 15.141.273 21.719-4.923 10.328-8.177 12.821-22.223 5.554-31.313z" class="B C"/><path d="M39.784 178.463c5.021-9.273 4.977-20.315-.12-29.537s-14.422-15.135-24.945-15.817l-25.356-1.644a19.38 19.38 0 0 0-11.846 3.08 19.38 19.38 0 0 0-7.683 9.53 19.35 19.35 0 0 0-.482 12.227 19.33 19.33 0 0 0 6.906 10.099l.226.17a38.26 38.26 0 0 1 14.647 26.742c.246 2.718 1.04 5.304 2.332 7.641a19.6 19.6 0 0 0 2.542 3.577c2.809 3.142 6.477 5.25 10.609 6.098a19.36 19.36 0 0 0 12.158-1.431c3.824-1.782 6.905-4.684 8.914-8.392l12.098-22.343zm-29.339-54.215c3.327 2.798 7.678 3.916 12.254 3.146 4.354-.731 8.412-3.111 11.425-6.701s4.651-7.999 4.619-12.417c-.034-4.64-1.885-8.735-5.211-11.527-6.684-5.619-17.304-4.024-23.677 3.559-5.068 6.045-5.931 14.088-2.692 19.948a14.1 14.1 0 0 0 3.281 3.992zm27.42 14.963c4.999 9.046 17.243 11.888 27.292 6.334s14.163-17.435 9.163-26.481-17.244-11.885-27.296-6.33-14.159 17.432-9.16 26.477zm10.657 30.594v.001a14.88 14.88 0 0 0 1.617 4.53c3.585 6.488 11.859 10.169 20.537 8.523 4.996-.948 9.416-3.509 12.445-7.214 3.172-3.877 4.46-8.526 3.627-13.091s-3.674-8.432-8-10.886c-4.132-2.345-9.159-3.113-14.154-2.164-10.537 2-17.747 11.107-16.072 20.301zm21.302 32.997l.001-.004c1.121-8.668-5.938-16.805-15.739-18.138-9.801-1.327-18.693 4.642-19.823 13.303-.413 3.159.263 6.249 1.764 8.964 2.615 4.733 7.738 8.329 13.973 9.18 9.801 1.326 18.693-4.642 19.824-13.305z" class="B C"/><path d="M352.683 189.348a10.51 10.51 0 0 0-16.166 7.383l-1.226 8.628c-.204 1.431.053 2.86.743 4.131a6.64 6.64 0 0 0 3.057 2.877c1.312.61 2.753.777 4.169.485a6.62 6.62 0 0 0 3.634-2.097l.064-.072a13.12 13.12 0 0 1 9.528-4.309c.936-.013 1.841-.216 2.675-.597a6.67 6.67 0 0 0 1.289-.776 6.64 6.64 0 0 0 2.364-3.468 6.65 6.65 0 0 0-.171-4.195c-.51-1.354-1.421-2.484-2.637-3.268l-7.323-4.722zm-19.308 8.613c1.044-1.065 1.54-2.523 1.397-4.108-.136-1.508-.843-2.958-1.992-4.083s-2.614-1.8-4.125-1.905c-1.588-.11-3.037.416-4.078 1.48-2.097 2.138-1.83 5.812.596 8.19 1.935 1.891 4.663 2.397 6.751 1.443.534-.244 1.025-.582 1.451-1.017zm5.835-8.985c3.225-1.473 4.517-5.585 2.881-9.167s-5.591-5.3-8.815-3.827-4.516 5.585-2.88 9.168 5.59 5.299 8.814 3.826zm10.741-2.843h0a5.11 5.11 0 0 0 1.592-.434c2.312-1.056 3.788-3.789 3.452-6.8-.193-1.733-.953-3.311-2.14-4.444-1.243-1.186-2.799-1.749-4.382-1.584s-2.98 1.036-3.932 2.451c-.91 1.352-1.305 3.051-1.111 4.783.408 3.656 3.333 6.36 6.521 6.028zm11.842-6.42h-.001c-2.935-.61-5.903 1.59-6.615 4.907s1.097 6.514 4.03 7.127c1.069.224 2.143.074 3.111-.369 1.687-.77 3.051-2.427 3.505-4.537.711-3.317-1.097-6.514-4.03-7.128z" class="B C"/><path d="M360.835 162.962a10.51 10.51 0 0 0-5.263-8.656c-3.13-1.807-6.916-1.893-10.128-.23l-7.739 4.005c-1.284.664-2.299 1.703-2.935 3.002s-.832 2.737-.569 4.159a6.63 6.63 0 0 0 2.022 3.677c1.059.984 2.379 1.587 3.816 1.744l.097.01c3.602.422 6.89 2.336 9.036 5.263.553.755 1.244 1.374 2.038 1.832a6.75 6.75 0 0 0 1.38.601 6.64 6.64 0 0 0 8.646-6.702l-.401-8.705zM342.62 152.23c1.473.233 2.949-.209 4.157-1.245 1.149-.986 1.92-2.403 2.17-3.991s-.05-3.173-.841-4.465c-.832-1.357-2.1-2.233-3.571-2.464-2.958-.468-5.796 1.881-6.326 5.237-.418 2.672.752 5.188 2.741 6.336a4.84 4.84 0 0 0 1.67.592zm10.703-.459c3.07 1.773 7.17.44 9.139-2.97s1.074-7.629-1.996-9.401-7.169-.439-9.139 2.972-1.073 7.627 1.996 9.399zm8.546 7.101h.001a5.12 5.12 0 0 0 1.276 1.045c2.202 1.271 5.284.888 7.542-1.132 1.3-1.163 2.144-2.698 2.379-4.322.245-1.7-.2-3.294-1.252-4.488s-2.572-1.826-4.277-1.781c-1.629.042-3.242.706-4.541 1.869-2.741 2.453-3.247 6.405-1.128 8.809zm12.099 5.922l-.001-.001c-1.205-2.745-4.719-3.886-7.834-2.543s-4.669 4.673-3.468 7.417c.438 1.001 1.184 1.789 2.105 2.321 1.606.928 3.747 1.077 5.73.224 3.113-1.346 4.669-4.673 3.468-7.418z" class="B D"/><path d="M627.895 50.724c.775-3.533-.289-7.167-2.844-9.723s-6.19-3.618-9.722-2.844l-8.513 1.866a6.64 6.64 0 0 0-5.238 6.01 6.63 6.63 0 0 0 1.002 4.075c.768 1.224 1.887 2.148 3.235 2.672l.09.035a13.12 13.12 0 0 1 7.366 7.422 6.66 6.66 0 0 0 1.494 2.297 6.76 6.76 0 0 0 1.178.937 6.63 6.63 0 0 0 4.075 1.002 6.64 6.64 0 0 0 3.871-1.626c1.091-.95 1.831-2.199 2.141-3.612l1.865-8.512zm-14.817-15.081c1.362.606 2.903.562 4.338-.127 1.365-.655 2.476-1.824 3.129-3.293s.773-3.078.343-4.531c-.452-1.526-1.451-2.7-2.812-3.304-2.736-1.217-6.084.317-7.465 3.421-1.096 2.473-.617 5.206 1.007 6.829.415.415.904.757 1.46 1.004zm10.458 2.327c2.506 2.507 6.811 2.28 9.595-.504s3.012-7.09.506-9.597-6.811-2.279-9.597.506-3.011 7.089-.504 9.595zm6.417 9.071h0c.252.507.578.954.963 1.339 1.798 1.798 4.874 2.225 7.577.859 1.557-.787 2.77-2.05 3.416-3.559.678-1.579.661-3.233-.047-4.659s-2.012-2.43-3.67-2.828c-1.585-.38-3.314-.156-4.87.631-3.283 1.66-4.794 5.346-3.369 8.216zm10.153 8.851v-.001c-.454-2.963-3.553-4.974-6.909-4.483s-5.72 3.305-5.27 6.266c.164 1.08.68 2.035 1.433 2.787 1.311 1.311 3.341 2.01 5.476 1.698 3.356-.494 5.72-3.305 5.27-6.267z" class="B D"/><path d="M621.089 291.529c-4.931-15.508-17.251-27.281-32.959-31.49s-32.263-.173-44.286 10.793l-28.975 26.422c-4.807 4.383-8.009 10.078-9.26 16.465s-.431 12.867 2.368 18.743a29.87 29.87 0 0 0 13.074 13.625c5.749 3.043 12.188 4.126 18.618 3.137l.431-.068a59.05 59.05 0 0 1 45.405 12.35c3.285 2.636 7.009 4.522 10.99 5.589 2.165.58 4.409.918 6.698 1.004 6.5.241 12.771-1.579 18.136-5.263a29.89 29.89 0 0 0 11.426-15.046c2.113-6.158 2.187-12.69.216-18.892l-11.882-37.369zm-91.671-25.433c6.672-.701 12.573-4.341 16.617-10.251 3.849-5.623 5.548-12.681 4.784-19.874s-3.912-13.733-8.856-18.428c-5.193-4.931-11.727-7.258-18.39-6.55-13.402 1.413-22.999 14.925-21.394 30.128 1.293 12.104 9.309 21.675 19.29 24.349 2.548.683 5.225.916 7.949.626zm45.989-14.457c15.407 4.128 31.673-6.438 36.26-23.555s-4.216-34.407-19.623-38.536-31.672 6.442-36.259 23.563 4.216 34.4 19.622 38.528zm45.414 20.909l.002.001c2.121 1.407 4.398 2.418 6.766 3.053 11.05 2.961 23.999-2.294 31.46-13.702 4.296-6.567 6.181-14.223 5.306-21.555-.914-7.677-4.702-14.086-10.667-18.048s-13.306-4.943-20.665-2.763c-7.031 2.083-13.267 6.848-17.56 13.415-9.058 13.854-6.654 31.618 5.358 39.599zm59.483 11.651l-.003-.005c-8.435-10.526-25.037-11.392-37.012-1.926-11.968 9.474-14.854 25.748-6.436 36.276 3.07 3.841 7.228 6.398 11.852 7.637 8.06 2.16 17.542.317 25.164-5.703 11.966-9.474 14.853-25.747 6.435-36.279z" class="B D"/><path d="M1362.38 6.108a21.4 21.4 0 0 0 11.84 16.89 21.38 21.38 0 0 0 20.6-.867l15.2-9.157a13.52 13.52 0 0 0 5.56-6.485c1.12-2.723 1.33-5.671.61-8.525a13.49 13.49 0 0 0-4.59-7.203 13.48 13.48 0 0 0-7.98-3.04l-.2-.008c-7.37-.381-14.31-3.836-19.05-9.5-1.23-1.461-2.71-2.627-4.38-3.453a13.73 13.73 0 0 0-2.89-1.038 13.5 13.5 0 0 0-8.51.729 13.49 13.49 0 0 0-6.4 5.663c-1.48 2.545-2.1 5.437-1.77 8.363l1.96 17.631zm38.42 19.401c-3.02-.28-5.96.813-8.28 3.077-2.2 2.154-3.58 5.135-3.88 8.394s.52 6.44 2.3 8.96c1.87 2.647 4.56 4.258 7.58 4.534 6.07.56 11.52-4.585 12.16-11.473.5-5.485-2.21-10.441-6.41-12.511a9.79 9.79 0 0 0-3.47-.982zm-21.68 2.342c-6.47-3.196-14.62.052-18.17 7.24-3.56 7.19-1.18 15.639 5.29 18.835s14.62-.054 18.17-7.244 1.18-15.636-5.29-18.831zm-18.3-13.298h0a10.5 10.5 0 0 0-2.73-1.954c-4.64-2.292-10.85-1.107-15.17 3.294-2.49 2.533-4 5.763-4.27 9.094-.27 3.487.84 6.666 3.14 8.952s5.47 3.371 8.92 3.055c3.31-.301 6.5-1.863 8.98-4.397 5.25-5.344 5.75-13.439 1.13-18.044zm-25.36-10.436v.003c2.81 5.417 10.1 7.271 16.25 4.132s8.87-10.108 6.07-15.525c-1.02-1.976-2.64-3.479-4.58-4.438-3.39-1.672-7.76-1.694-11.67.302-6.15 3.144-8.87 10.108-6.07 15.526z" class="B C"/><path d="M886.721 154.945a12.02 12.02 0 0 0-14.375 14.376l2.134 9.737a7.6 7.6 0 0 0 2.448 4.132c1.247 1.087 2.778 1.73 4.427 1.861a7.59 7.59 0 0 0 4.662-1.147c1.4-.879 2.457-2.158 3.057-3.7l.04-.103a15.01 15.01 0 0 1 8.49-8.427 7.59 7.59 0 0 0 2.627-1.709 7.7 7.7 0 0 0 1.073-1.347 7.59 7.59 0 0 0 1.146-4.662 7.6 7.6 0 0 0-1.86-4.428c-1.087-1.248-2.516-2.094-4.132-2.449l-9.737-2.134zm-17.251 16.95c.693-1.558.642-3.32-.145-4.961-.749-1.562-2.087-2.834-3.768-3.58s-3.52-.884-5.182-.393c-1.746.517-3.089 1.66-3.78 3.217-1.392 3.13.363 6.96 3.914 8.539 2.829 1.254 5.955.706 7.812-1.152a5.53 5.53 0 0 0 1.149-1.67zm2.662-11.963c2.867-2.867 2.609-7.791-.577-10.976s-8.111-3.446-10.978-.579-2.608 7.792.579 10.978 8.109 3.445 10.976.577zm10.376-7.34v-.001a5.82 5.82 0 0 0 1.533-1.101c2.056-2.056 2.545-5.575.982-8.668-.9-1.78-2.346-3.168-4.071-3.908-1.807-.775-3.699-.755-5.33.054s-2.779 2.302-3.235 4.199c-.435 1.812-.178 3.791.722 5.571 1.899 3.755 6.115 5.484 9.399 3.854zm10.126-11.615h-.002c-3.389.519-5.69 4.064-5.128 7.904s3.78 6.543 7.168 6.028c1.236-.188 2.327-.778 3.188-1.639 1.5-1.5 2.3-3.822 1.943-6.265-.565-3.838-3.78-6.543-7.169-6.028z" class="B C"/><path d="M978.578 194.93c-2.632-3.191-6.654-4.801-10.759-4.305s-7.627 3.016-9.424 6.743l-4.33 8.978c-.719 1.49-.935 3.137-.624 4.762a7.61 7.61 0 0 0 2.334 4.197 7.58 7.58 0 0 0 9.065.95l.095-.056c3.585-2.088 7.908-2.595 11.881-1.39 1.025.31 2.082.402 3.122.277a7.76 7.76 0 0 0 1.675-.398c1.556-.559 2.863-1.583 3.78-2.961a7.59 7.59 0 0 0 1.269-4.631 7.61 7.61 0 0 0-1.739-4.478l-6.345-7.688zm-24.034 2.688c1.507-.798 2.554-2.216 2.948-3.993.375-1.691.107-3.517-.755-5.142s-2.224-2.868-3.835-3.507c-1.693-.671-3.455-.601-4.959.198-3.028 1.603-4.011 5.7-2.192 9.134 1.452 2.733 4.25 4.231 6.858 3.916.666-.081 1.319-.28 1.935-.606zm9.478-7.769c4.026-.486 6.861-4.52 6.321-8.993s-4.255-7.717-8.281-7.23-6.86 4.521-6.32 8.994 4.254 7.715 8.28 7.229zm12.694.629l.001-.001a5.82 5.82 0 0 0 1.885.079c2.887-.348 5.444-2.815 6.123-6.213.391-1.956.11-3.941-.791-5.588-.943-1.724-2.444-2.877-4.227-3.246s-3.607.095-5.137 1.306c-1.461 1.158-2.48 2.873-2.87 4.829-.824 4.127 1.426 8.089 5.016 8.834zm15.136-2.889l-.001-.001c-2.988-1.684-6.986-.315-8.914 3.053s-1.063 7.482 1.92 9.167c1.088.615 2.311.825 3.52.679 2.106-.255 4.168-1.588 5.395-3.73 1.925-3.369 1.064-7.482-1.92-9.168z" class="B C"/><path d="M855.028 62.114a12.02 12.02 0 0 0-17.961 9.522l-.819 9.935a7.6 7.6 0 0 0 1.127 4.668 7.61 7.61 0 0 0 3.687 3.079 7.59 7.59 0 0 0 4.792.273 7.58 7.58 0 0 0 4.009-2.64l.068-.087a15.01 15.01 0 0 1 10.59-5.563 7.6 7.6 0 0 0 3.014-.863 7.7 7.7 0 0 0 1.42-.973 7.59 7.59 0 0 0 2.465-4.12 7.6 7.6 0 0 0-3.71-8.333l-8.682-4.898zm-21.466 11.138c1.12-1.286 1.588-2.985 1.318-4.785-.258-1.713-1.163-3.321-2.551-4.528s-3.106-1.879-4.839-1.897c-1.821-.018-3.44.68-4.557 1.965-2.25 2.584-1.697 6.76 1.234 9.312 2.336 2.029 5.486 2.423 7.806 1.192.593-.314 1.132-.734 1.589-1.26zm6.056-10.654c3.583-1.899 4.781-6.683 2.671-10.663s-6.742-5.675-10.325-3.775-4.78 6.683-2.669 10.664 6.741 5.673 10.323 3.774zm12.074-3.971h0a5.82 5.82 0 0 0 1.788-.603c2.57-1.362 4.07-4.582 3.484-7.998-.338-1.966-1.312-3.717-2.745-4.931-1.499-1.271-3.314-1.808-5.11-1.512s-3.333 1.384-4.325 3.064c-.948 1.605-1.284 3.572-.946 5.537.713 4.147 4.236 7.038 7.854 6.443zm13.089-8.13h-.001c-3.393-.499-6.633 2.215-7.223 6.05s1.693 7.365 5.083 7.867c1.237.184 2.453-.06 3.529-.63 1.874-.994 3.32-2.978 3.696-5.418.587-3.835-1.693-7.364-5.084-7.867z" class="B C"/><path d="M737.139 51.471a12.02 12.02 0 0 0-9.745 17.842l4.791 8.742a7.61 7.61 0 0 0 3.512 3.275c1.502.692 3.153.878 4.773.539a7.58 7.58 0 0 0 6.041-6.825l.009-.111a15.01 15.01 0 0 1 5.773-10.477 7.61 7.61 0 0 0 2.04-2.38 7.72 7.72 0 0 0 .649-1.594 7.59 7.59 0 0 0-.213-4.796 7.6 7.6 0 0 0-3.032-3.725c-1.395-.891-3.004-1.301-4.654-1.186l-9.944.695zM725.36 72.594c.227-1.69-.319-3.367-1.537-4.72-1.158-1.288-2.8-2.131-4.623-2.373s-3.627.143-5.083 1.083c-1.53.987-2.496 2.462-2.721 4.151-.454 3.396 2.309 6.577 6.161 7.091 3.068.406 5.912-1 7.171-3.306a5.52 5.52 0 0 0 .632-1.926zm-.815-12.228c1.944-3.559.308-8.211-3.645-10.37s-8.753-1.021-10.697 2.537-.307 8.211 3.647 10.37 8.752 1.021 10.695-2.538zm7.888-9.966h0a5.81 5.81 0 0 0 1.16-1.489c1.394-2.552.873-6.066-1.499-8.593-1.364-1.455-3.143-2.379-5.007-2.603-1.951-.235-3.761.317-5.098 1.553s-2.019 2.991-1.921 4.94c.093 1.862.896 3.688 2.261 5.142 2.88 3.068 7.412 3.54 10.104 1.05zm6.445-13.997h-.002c-3.106 1.453-4.315 5.502-2.694 9.028s5.47 5.213 8.575 3.765c1.133-.528 2.014-1.402 2.598-2.47 1.017-1.862 1.13-4.315.1-6.558-1.624-3.524-5.471-5.213-8.577-3.765z" class="B D"/><path d="M157.228 93.392a12.02 12.02 0 0 0-2.847-11.233c-2.814-3.028-6.925-4.394-10.996-3.656l-9.808 1.778a7.6 7.6 0 0 0-6.239 6.652 7.59 7.59 0 0 0 .976 4.7 7.58 7.58 0 0 0 3.586 3.19l.102.044a15.01 15.01 0 0 1 8.112 8.792c.352 1.011.899 1.92 1.612 2.688a7.69 7.69 0 0 0 1.307 1.12 7.59 7.59 0 0 0 9.11-.382 7.6 7.6 0 0 0 2.598-4.04l2.487-9.653zm-16.31-17.857c1.531.75 3.294.763 4.963.036 1.588-.691 2.907-1.982 3.714-3.635s1.012-3.486.581-5.165c-.453-1.763-1.546-3.147-3.076-3.894-3.078-1.505-6.969.109-8.677 3.6-1.356 2.782-.921 5.926.867 7.849a5.53 5.53 0 0 0 1.628 1.209zm11.857 3.096c2.761 2.97 7.692 2.891 10.991-.177s3.738-7.98.977-10.95-7.691-2.889-10.991.179-3.738 7.979-.977 10.948zm6.958 10.637h.001a5.78 5.78 0 0 0 1.045 1.571c1.98 2.13 5.478 2.747 8.626 1.297 1.812-.834 3.252-2.229 4.054-3.926.839-1.777.889-3.669.139-5.328s-2.198-2.861-4.078-3.386c-1.795-.501-3.782-.317-5.593.518-3.822 1.761-5.703 5.911-4.194 9.253zm11.238 10.542l.001-.002c-.396-3.406-3.855-5.835-7.712-5.413s-6.676 3.54-6.285 6.944c.142 1.242.693 2.355 1.521 3.246 1.445 1.554 3.736 2.437 6.19 2.17 3.857-.425 6.677-3.54 6.285-6.945z" class="B D"/><path d="M423.959 9.03c4.759 7.431 12.864 11.868 21.682 11.868s16.922-4.437 21.681-11.868l11.467-17.905c1.903-2.97 2.781-6.403 2.539-9.923s-1.58-6.8-3.87-9.484-5.322-4.515-8.76-5.302a16.17 16.17 0 0 0-10.192.97l-.216.096a32.02 32.02 0 0 1-25.514-.096c-2.091-.92-4.306-1.385-6.541-1.385-1.215 0-2.438.138-3.649.414-3.438.786-6.467 2.619-8.76 5.302a16.2 16.2 0 0 0-3.873 9.484 16.22 16.22 0 0 0 2.538 9.925L423.959 9.03zm51.583.455c-3.396 1.304-5.976 4.038-7.265 7.701-1.226 3.485-1.126 7.42.284 11.081s3.976 6.644 7.224 8.409c3.412 1.853 7.161 2.155 10.552.849 6.821-2.621 9.951-11.044 6.977-18.782-2.376-6.158-7.918-10.046-13.521-10.046a11.79 11.79 0 0 0-4.251.787zm-22.058 14.026c-8.649 0-15.686 7.817-15.686 17.426s7.037 17.43 15.686 17.43 15.684-7.819 15.684-17.43-7.036-17.426-15.684-17.426zm-26.721-4.577h-.001c-1.308-.439-2.643-.649-3.972-.649-6.203 0-12.248 4.569-14.555 11.592-1.328 4.042-1.241 8.317.246 12.034 1.556 3.892 4.44 6.718 8.12 7.956s7.663.722 11.212-1.453c3.389-2.078 5.987-5.448 7.314-9.491 2.8-8.527-.952-17.494-8.364-19.988zm-32.789 2.245l.002.002c5.895 4.329 14.712 2.453 19.655-4.185s4.167-15.57-1.72-19.903c-2.146-1.581-4.683-2.337-7.279-2.337-4.525 0-9.232 2.296-12.379 6.518-4.938 6.642-4.167 15.57 1.721 19.905z" class="B D"/><path d="M1191.18-5.76c-2.68-2.437-6.36-3.334-9.85-2.398a10.51 10.51 0 0 0-7.32 6.998l-2.64 8.305c-.44 1.378-.42 2.83.05 4.198a6.61 6.61 0 0 0 2.54 3.344 6.62 6.62 0 0 0 4.03 1.17 6.64 6.64 0 0 0 3.93-1.465l.07-.061a13.13 13.13 0 0 1 10.11-2.668c.93.142 1.85.092 2.74-.145a6.74 6.74 0 0 0 1.4-.551 6.67 6.67 0 0 0 2.91-3.028 6.64 6.64 0 0 0 .52-4.165 6.64 6.64 0 0 0-2.05-3.66l-6.44-5.872zm-20.47 5.291c1.2-.876 1.94-2.233 2.06-3.819.11-1.51-.34-3.057-1.29-4.356s-2.28-2.208-3.75-2.563c-1.55-.372-3.07-.094-4.27.783-2.42 1.761-2.77 5.428-.77 8.175 1.59 2.186 4.2 3.137 6.42 2.543.56-.152 1.11-.404 1.6-.763z" opacity=".2" class="B"/></svg>