<svg xmlns="http://www.w3.org/2000/svg" width="21" height="22" fill="#78c0de" xmlns:v="https://vecta.io/nano"><path d="M6.701 13.319a6.3 6.3 0 0 0-.436 1.164c-.044.183.035.373.194.47.087.053 2.151 1.3 3.865.592l.401-.185c-1.461-.365-2.831-1.131-4.024-2.042zm.038-5.571a5.27 5.27 0 0 1 .348.316C8.684 6.927 10.559 6.08 12.52 6.08a11.3 11.3 0 0 1 1.307.077c-.224-.403-.598-.824-1.198-1.225-1.178-.785-2.698-.188-3.893.564a12.88 12.88 0 0 0-2.031 1.609c-.181.181-.166.48.035.643zm-1.226 4.565l-.611-.614c-.441-.493-.441-1.236 0-1.73.114-.128.343-.363.61-.614C5.044 9 4.468 8.454 3.925 7.64c-.151-.226-.472-.259-.665-.066-.645.645-1 1.422-.974 2.133v2.255c-.026.71.329 1.488.974 2.133a.43.43 0 0 0 .665-.066 7.01 7.01 0 0 1 1.587-1.715zm9.836 1.768c-1.308-1.505-1.311-4.978-.004-6.489.015-.017.006-.007.204-.205a10.95 10.95 0 0 0-3.03-.442c-2.213 0-4.377 1.251-6.029 2.692l-.945.91a.43.43 0 0 0 0 .576c.368.411 1.131 1.117 1.952 1.712 1.255.909 2.704 1.643 4.235 1.838.007-.006.276.045.816.051a10.95 10.95 0 0 0 2.983-.433l-.182-.21zm4.494-2.271c.204-.257.388-.589.412-.92.054-.726-.754-1.47-1.341-1.903-.729-.538-1.606-.979-2.447-1.297l-.477.477c-1.016 1.195-1.008 4.172.012 5.346l.419.483c1.164-.434 2.658-1.212 3.422-2.187zm-3.14-1.34a.43.43 0 0 1 .288-.539c.223-.074.494.063.549.329.022.108.001.224-.064.324-.211.309-.67.226-.773-.115z"/></svg>