<svg xmlns="http://www.w3.org/2000/svg" width="28" height="27" fill="none" xmlns:v="https://vecta.io/nano"><path d="M23.577 17.05c-2.197-3.213-4.566-6.738-10.105-5.254-2.469.662-4.112 1.935-5.024 3.892-.807 1.734-.953 3.771-1.101 5.711-.184 2.378 2.289 4.067 4.447 3.021 1.771-.859 4.172-2.151 8.026-2.428 1.485-.107 1.628-.099 2.012-.202 2.006-.538 2.976-2.943 1.746-4.739z" fill="#fbdd7b"/><path d="M21.831 21.79c2.006-.538 2.976-2.943 1.745-4.739-2.197-3.213-4.566-6.738-10.105-5.254l2.888 10.777c2.774-.743 4.569-.541 5.472-.783z" fill="#fecb3e"/><path d="M16.566 16.404l-1.085.291-.291-1.085c-.096-.36-.466-.573-.825-.476s-.573.466-.477.825l.291 1.085-1.085.291c-.359.096-.573.466-.476.825s.466.573.825.476l1.085-.291.291 1.085c.096.359.466.573.825.476s.573-.466.476-.825l-.291-1.085 1.085-.291c.36-.096.573-.466.477-.825s-.466-.573-.825-.476z" fill="#fff8e0"/><path d="M16.121 19.081l-.291-1.085 1.085-.291c.36-.096.573-.466.477-.825s-.466-.573-.825-.476l-1.085.291-.291-1.085c-.096-.36-.466-.573-.825-.476l1.279 4.773c.36-.096.573-.466.476-.825z" fill="#ffe799"/><path d="M21.277 6.212c-1.316.353-2.1 1.71-1.747 3.026s1.71 2.1 3.026 1.747 2.143-1.722 1.791-3.038-1.753-2.088-3.069-1.735zM16.42 8.916c1.512-.405 2.325-2.271 1.817-4.169s-2.146-3.107-3.658-2.702-2.325 2.271-1.817 4.169 2.146 3.107 3.658 2.702z" fill="#fecb3e"/><path d="M9.478 10.777c1.512-.405 2.325-2.271 1.817-4.169S9.149 3.501 7.637 3.907 5.312 6.178 5.82 8.075s2.146 3.107 3.658 2.702zm-5.558.086c-1.316.353-2.143 1.722-1.79 3.038s1.753 2.088 3.069 1.735 2.1-1.71 1.747-3.026-1.71-2.1-3.026-1.747z" fill="#fbdd7b"/></svg>