<svg xmlns="http://www.w3.org/2000/svg" width="64" height="62" fill="#dbdbdb" opacity=".1" xmlns:v="https://vecta.io/nano"><path d="M40.029 28.114a12.02 12.02 0 0 0-11.587-.155 12.02 12.02 0 0 0-6.375 9.677l-.818 9.935a7.6 7.6 0 0 0 4.813 7.747 7.59 7.59 0 0 0 4.793.273 7.58 7.58 0 0 0 4.009-2.64l.068-.087a15.01 15.01 0 0 1 10.59-5.563c1.068-.078 2.088-.372 3.013-.863a7.69 7.69 0 0 0 1.42-.973 7.59 7.59 0 0 0 2.465-4.12 7.6 7.6 0 0 0-3.709-8.333l-8.682-4.898zM18.562 39.252c1.12-1.286 1.589-2.985 1.318-4.785-.257-1.713-1.163-3.321-2.551-4.528s-3.106-1.879-4.839-1.897c-1.82-.018-3.44.68-4.557 1.965-2.25 2.584-1.697 6.76 1.234 9.312 2.337 2.029 5.486 2.423 7.806 1.192a5.53 5.53 0 0 0 1.588-1.26zm6.056-10.654c3.583-1.899 4.781-6.683 2.671-10.663s-6.742-5.675-10.325-3.775-4.78 6.683-2.669 10.664 6.741 5.673 10.323 3.774zm12.074-3.971h0a5.83 5.83 0 0 0 1.788-.603c2.569-1.362 4.07-4.582 3.483-7.998-.337-1.966-1.312-3.717-2.745-4.931-1.499-1.271-3.314-1.808-5.111-1.512s-3.332 1.384-4.325 3.064c-.948 1.605-1.284 3.572-.946 5.537.713 4.147 4.236 7.037 7.854 6.443zm13.089-8.13l-.002-.001c-3.393-.499-6.633 2.215-7.223 6.05s1.693 7.365 5.083 7.867c1.236.183 2.453-.06 3.529-.631 1.874-.994 3.32-2.979 3.696-5.418.587-3.835-1.693-7.365-5.084-7.867z"/></svg>