<svg xmlns="http://www.w3.org/2000/svg" width="178" height="87" fill="none" xmlns:v="https://vecta.io/nano"><path d="M10.95 37.881L0 32.836l11.854-5.475c.336-16.378 16.16-19.928 22.722-19.293S60.23 20.414 52.537 44.331c-2.621 8.151-2.002 29.239 28.586 27.291-2.297 4.33-13.082 22.289-48.182 10.865C23.21 79.32 9.344 63.639 10.95 37.881z" fill="#ffbd54"/><path d="M110.818 32.703c.96-11.601-5.053-22.116-8.576-24.539-3.288-2.26-3.299 7.495-6.227 12.846a36.95 36.95 0 0 0-14.235-2.828c-5.065 0-9.872 1.012-14.21 2.818-2.922-5.353-2.937-15.095-6.221-12.837-3.52 2.412-9.521 12.921-8.577 24.499-3.623 5.082-5.737 11.167-5.737 17.713 0 17.781 15.557 30.967 34.745 30.967s34.745-13.187 34.745-30.967c0-6.529-2.104-12.599-5.707-17.672z" fill="#78c0de"/><g fill="#000"><path d="M109.119 52.411c.898-15.917 6.977-18.117 7.775-27.851C118 11.082 127.285 1.282 131.872.075s-1.264 12.475 2.847 17.117c8.6-2.981 14.061-.443 18.374 4.223s-1.317 9.124 7.13 7.929c3.475-.493 7.087-.377 10.11.393.286-.189.595-.351.931-.467 2.378-.823 5.052.662 5.975 3.322.348 1.007.393 2.038.188 2.976a6.34 6.34 0 0 1 .116 1.638c-.466 8.182-10.549 19.451-16.813 20.272s-12.915-.259-13.085 12.274c-.225 16.693-37.176 23.299-46.227 6.352 6.624-4.792 7.016-11.537 7.701-23.693z"/><path d="M136.872 22.14c4.325.382 7.761-1.915 11.106-4.491-1.345-.166-2.831-.176-4.498.014-2.507-4.531 4.754-14.617.794-14.47-3.569.127-12.703 5.018-16.914 13.883 3.056 2.054 5.488 5.283 9.512 5.065z"/></g><path d="M38.142 34.436a3.66 3.66 0 0 0-1.579-.121c-1.547.221-2.854 1.433-3.244 3L29.85 50.277l-6.918-11.498c-.868-1.384-2.474-2.168-4-1.95-.52.075-1.001.259-1.43.549-.971.599-1.64 1.501-1.886 2.544-.237.992-.059 2.027.484 2.892l11.702 19.648c.084.169.215.415.443.614.08.089.172.162.275.221l.105.151.144.109a1.48 1.48 0 0 0 .178.118l.028.194.494.165.151.112 1.12.242.333.063.167-.024c.285.015.496-.015.618-.032.167-.023.384-.055.654-.15l.252-.036.206-.142 1.005-.646.206-.275a2.19 2.19 0 0 0 .236-.3 1.14 1.14 0 0 0 .175-.271l.089-.147.017-.028a1.22 1.22 0 0 0 .232-.359 2.45 2.45 0 0 0 .225-.619l5.848-22.135c.286-1.007.167-2.051-.335-2.938-.533-.942-1.439-1.626-2.525-1.916zm43.437-.155c-9.318.163-16.82 8.103-16.722 17.719.24 9.688 7.847 17.202 17.32 17.106h.01c4.986-.088 9.021-1.661 12.331-4.811.806-.761 1.245-1.73 1.27-2.8.034-1.375-.628-2.58-1.269-3.261-.69-.791-1.902-1.248-3.256-1.225-1.36.024-2.615.533-3.466 1.401-1.092.82-2.992 1.367-4.876 1.4a9.82 9.82 0 0 1-.781-.018c-1.967-.134-4.202-1.119-5.311-2.344l-.09-.091c-.505-.461-.953-1.115-1.305-1.889l18.592-.324c2.422-.042 4.289-1.547 4.596-3.681.072-.268.085-.561.08-.898l-.01-.401c-.719-9.364-7.917-16.043-17.114-15.883zm7.64 12.784l-14.177.248c.97-1.919 3.116-3.967 6.668-4.227 3.64.256 6.226 2.145 7.508 3.979zm48.855 2.618c2.535.264 4.897-1.625 5.158-4.125.264-2.546-1.616-4.834-4.194-5.103l-.242-.026.785-7.529c.27-2.588-1.545-4.826-4.132-5.096-2.622-.274-4.887 1.539-5.157 4.126l-.787 7.528-.485-.05a4.59 4.59 0 0 0-5.097 4.133 4.65 4.65 0 0 0 4.133 5.096l.485.05-1.635 15.664a8.07 8.07 0 0 0 7.177 8.851 4.59 4.59 0 0 0 5.097-4.133c.227-2.173-.979-4.099-2.87-4.85l1.52-14.564.244.026z" fill="#fff"/></svg>