<svg xmlns="http://www.w3.org/2000/svg" width="54" height="78" fill="none" xmlns:v="https://vecta.io/nano"><path d="M52.866 38.723a6.05 6.05 0 1 1-12.101 0 6.05 6.05 0 1 1 12.101 0z" fill="#89ceea"/><path d="M46.815 32.672c-.802 0-1.568.158-2.269.441 2.217.898 3.782 3.07 3.782 5.609s-1.565 4.711-3.782 5.609c.701.284 1.467.441 2.269.441a6.05 6.05 0 0 0 0-12.101z" fill="#78c0de"/><path d="M37.437 60.058v16.253H1.134V60.058a12.03 12.03 0 0 1 8.991-11.653c.449-.117.909-.207 1.376-.271a12.02 12.02 0 0 1 1.626-.11h12.316c.552 0 1.094.038 1.626.11a11.67 11.67 0 0 1 1.386.274 12.03 12.03 0 0 1 8.982 11.65z" fill="#e8e1d5"/><path d="M28.455 48.408c-.453-.118-.914-.21-1.386-.274-.532-.073-1.074-.11-1.626-.11h-4.538c.552 0 1.094.038 1.626.11a11.67 11.67 0 0 1 1.386.274 12.03 12.03 0 0 1 8.982 11.65v16.253h4.538V60.058a12.03 12.03 0 0 0-8.982-11.65z" fill="#d6cfc4"/><path d="M28.455 48.408l-9.165 27.903-9.165-27.906a11.78 11.78 0 0 1 1.376-.271 12.02 12.02 0 0 1 1.626-.11h12.316c.552 0 1.094.038 1.626.11a11.67 11.67 0 0 1 1.386.274z" fill="#ff573d"/><path d="M26.13 48.023c.546 0 .945.515.811 1.044-.672 2.64-3.844 4.64-7.655 4.64s-6.983-2-7.655-4.64c-.135-.529.265-1.044.811-1.044h2.349v-8.836h8.992v8.836h2.349z" fill="#eba28c"/><g fill="#c4beb4"><path d="M19.286 76.311c.046-.392-3.865-25.125-4.522-29.276-.052-.326-.356-.55-.684-.503l-6.282.902c-.282.041-.498.273-.518.558l-.56 8.21 2.641 1.607-.736 3.839 10.662 14.663z"/><path d="M19.286 76.311c-.046-.392 3.865-25.125 4.522-29.276.051-.326.356-.55.684-.503l6.282.902c.282.041.498.273.518.558l.56 8.21-2.64 1.607.736 3.839-10.661 14.663z"/></g><path d="M8.244 24.353c0 2.255-1.639 4.084-3.66 4.084s-3.298-2.095-3.298-4.35c0-2.662 1.276-3.818 3.298-3.818s3.66 1.829 3.66 4.084zm22.084 0c0 2.255 1.639 4.084 3.66 4.084s3.298-2.095 3.298-4.35c0-2.662-1.276-3.818-3.298-3.818s-3.66 1.829-3.66 4.084z" fill="#eba28c"/><path d="M5.975 29.608V19.76c0-6.931 5.619-12.55 12.551-12.55h1.521c6.931 0 12.55 5.619 12.55 12.55v9.849a13.3 13.3 0 0 1-13.298 13.298h-.025A13.3 13.3 0 0 1 5.975 29.608z" fill="#fcc19c"/><path d="M20.046 7.209h-1.521c-.511 0-1.014.034-1.509.093 6.219.746 11.042 6.037 11.042 12.457v9.849c0 6.576-4.772 12.035-11.042 13.107.733.126 1.487.191 2.256.191h.025a13.3 13.3 0 0 0 13.299-13.298V19.76c0-6.931-5.619-12.55-12.551-12.55z" fill="#eba28c"/><path d="M5.975 24.239c0 .096.087.168.182.148.605-.128 2.522-.651 2.692-2.177.201-1.815 3.64-6.958 9.081-7.462 3.962-.367 5.887-2.446 6.641-3.548.151-.22.49-.157.546.104.3 1.4 1.117 4.32 2.947 5.965 2.418 2.174 1.691 6.958 4.368 7.147.089.006.166-.062.166-.151v-3.779c0-.401.325-.726.726-.726h.066c.336 0 .629-.229.706-.557.329-1.386 1.03-5.092-.024-7.985-1.322-3.63-5.026-5.143-5.026-5.143s-1.257-4.941-8.961-4.941S9.356 4.379 9.356 4.379s-5.852 5.017-5.348 9.407c.339 2.951.468 4.875.516 5.82.02.386.339.688.725.688.401 0 .726.325.726.726v3.219z" fill="#633327"/><path d="M34.07 11.219c-1.322-3.63-5.026-5.143-5.026-5.143s-1.257-4.941-8.961-4.941a24.99 24.99 0 0 0-2.518.125c5.911.768 6.942 4.816 6.942 4.816s3.704 1.513 5.026 5.143c1.054 2.892.352 6.598.024 7.985a.71.71 0 0 1-.103.235c.882 2.238 1.017 4.84 2.978 4.977.089.006.166-.062.166-.151v-3.779c0-.401.325-.726.726-.726h.066c.336 0 .628-.229.706-.557.329-1.386 1.03-5.092-.024-7.984zm-20.678 3.529c-4.037.374-6.969 3.301-8.297 5.529a.74.74 0 0 0 .155.018c.401 0 .726.325.726.726v3.219a.15.15 0 0 0 .182.148c.605-.128 2.522-.651 2.692-2.177.201-1.815 3.64-6.958 9.081-7.463 1.37-.127 2.496-.458 3.414-.883-2.486.354-3.99.516-7.952.883z" fill="#572d22"/><path d="M17.089 26.199c0 2.088-1.693 3.782-3.781 3.782s-3.781-1.693-3.781-3.782a3.782 3.782 0 1 1 7.563 0zm11.957 0c0 2.088-1.693 3.782-3.782 3.782s-3.782-1.693-3.782-3.782a3.782 3.782 0 1 1 7.563 0z" fill="#cee8f2"/><path d="M54 38.723c0-3.962-3.223-7.185-7.185-7.185s-7.185 3.223-7.185 7.185c0 3.576 2.626 6.549 6.05 7.094v1.453c0 4.564-3.282 8.375-7.61 9.2-.871-3.072-2.84-5.769-5.576-7.52l-.071-1.036a1.75 1.75 0 0 0-1.488-1.604l-1.995-.286c3.932-2.056 6.622-6.173 6.622-10.908V29.24c1.703-.753 2.857-2.72 2.857-5.153 0-2.645-1.142-4.341-3.178-4.816.375-1.657 1.002-5.401-.106-8.441-1.194-3.275-4.043-5.001-5.184-5.581C29.349 3.799 27.099 0 20.083 0 12.432 0 9.05 3.082 8.579 3.551c-.576.502-6.248 5.581-5.698 10.364.295 2.568.428 4.347.487 5.346-2.062.461-3.218 2.162-3.218 4.825 0 2.45 1.17 4.427 2.891 5.169v5.861c0 4.733 2.688 8.847 6.615 10.904l-2.021.29a1.75 1.75 0 0 0-1.488 1.604l-.07 1.036A13.22 13.22 0 0 0 0 60.058v7.707c0 .626.508 1.134 1.134 1.134s1.134-.508 1.134-1.134v-7.707a10.95 10.95 0 0 1 3.604-8.107l-.285 4.173c-.029.423.18.827.542 1.047l1.968 1.197-.588 3.067c-.059.308.012.627.197.88l9.352 12.862H2.269v-2.59c0-.626-.508-1.134-1.134-1.134S0 71.96 0 72.586v3.725c0 .626.508 1.135 1.134 1.135h36.303c.626 0 1.134-.508 1.134-1.135V60.058c0-.457-.024-.911-.072-1.36 5.375-1.026 9.45-5.758 9.45-11.427v-1.453c3.425-.545 6.05-3.519 6.05-7.094zM35.75 56.638h-2.853a1.13 1.13 0 0 0 .087-.514l-.285-4.172c1.407 1.273 2.457 2.892 3.051 4.686zm-5.077-1.048l-1.662 1.012c-1.979-.167-3.786-.951-5.224-2.16l1.06-6.713 5.342.767.484 7.095zm-11.399-11.55h.024c1.153 0 2.274-.136 3.349-.393v1.503h-6.722v-1.503a14.42 14.42 0 0 0 3.349.393zm-3.301 3.379h2.2a11.56 11.56 0 0 0 1.277 5.148l-.164.004a9.26 9.26 0 0 1-2.555-.356l-.758-4.795zm5.871 4.779c-.865-1.393-1.374-3.028-1.402-4.779h2.158l-.756 4.779zm-2.558 2.642c.544 0 1.077-.037 1.6-.108.153.182.312.359.475.531l-2.074 13.279-2.173-13.904c.703.133 1.429.202 2.173.202zm5.63-9.828v-2.109c4.121-1.748 7.268-5.358 8.379-9.769v1.982c0 4.969-3.631 9.104-8.379 9.896zm11.236-20.926c0 1.581-.809 3.216-2.163 3.216a2.2 2.2 0 0 1-.257-.016v-5.867a2.2 2.2 0 0 1 .257-.016c1.069 0 2.163.319 2.163 2.683zM10.095 5.24a1.08 1.08 0 0 0 .092-.088c.026-.029 2.768-2.883 9.896-2.883 6.65 0 7.818 3.93 7.861 4.086.082.356.33.629.667.769.032.013 3.266 1.388 4.393 4.482.892 2.449.34 5.715.054 7.037-.901.129-1.596.905-1.596 1.841v1.461c-.113-.317-.229-.692-.359-1.128-.447-1.499-.954-3.199-2.282-4.393-1.617-1.455-2.354-4.232-2.596-5.36-.121-.561-.562-.996-1.126-1.107a1.44 1.44 0 0 0-1.466.601c-.687 1.005-2.355 2.739-5.809 3.059l-.145.015c-.623.067-1.074.626-1.007 1.249s.627 1.073 1.249 1.008l.113-.011c3.151-.292 5.165-1.565 6.387-2.752.506 1.634 1.391 3.644 2.883 4.987.853.767 1.245 2.083 1.624 3.355.445 1.491.984 3.294 2.534 3.888v4.253a12.18 12.18 0 0 1-12.165 12.165h-.024A12.18 12.18 0 0 1 7.109 29.608v-4.302c.619-.2 1.152-.476 1.588-.812a4.89 4.89 0 0 0-.305 1.705c0 2.71 2.205 4.916 4.916 4.916 2.32 0 4.268-1.617 4.782-3.782h2.392c.514 2.165 2.462 3.782 4.782 3.782 2.71 0 4.916-2.206 4.916-4.916s-2.206-4.916-4.916-4.916c-2.32 0-4.269 1.616-4.782 3.781H18.09c-.514-2.165-2.462-3.781-4.782-3.781a4.9 4.9 0 0 0-3.381 1.352 2.93 2.93 0 0 0 .05-.3c.097-.87 1.538-3.337 3.948-4.95.521-.349.66-1.053.312-1.574s-1.053-.66-1.574-.311c-2.808 1.88-4.751 4.882-4.94 6.585-.034.305-.287.555-.612.748v-1.813c-.002-.537-.228-1.016-.589-1.354a2.28 2.28 0 0 0-.038-.037c-.01-.009-.021-.017-.031-.025-.017-.014-.034-.028-.051-.041-.219-.174-.478-.3-.761-.36-.059-1.015-.196-2.866-.503-5.544-.356-3.1 3.459-7.127 4.96-8.416zm.565 20.958a2.65 2.65 0 0 1 2.647-2.647 2.65 2.65 0 0 1 2.647 2.647 2.65 2.65 0 0 1-2.647 2.647 2.65 2.65 0 0 1-2.647-2.647zm11.957 0a2.65 2.65 0 0 1 2.647-2.647 2.65 2.65 0 0 1 2.647 2.647 2.65 2.65 0 0 1-2.647 2.647 2.65 2.65 0 0 1-2.647-2.647zM4.583 21.403a2.2 2.2 0 0 1 .257.017v5.866a2.2 2.2 0 0 1-.257.016c-1.354 0-2.163-1.635-2.163-3.216 0-2.364 1.094-2.683 2.163-2.683zm.728 13.713V33.27a14.5 14.5 0 0 0 8.345 9.633v2.103c-4.731-.806-8.345-4.932-8.345-9.89zM9.95 56.839l-2.051-1.248.402-5.889c.001-.007.001-.014.001-.021l.081-1.186 5.342-.767 3.786 24.212-7.68-10.563.643-3.357c.089-.465-.12-.937-.525-1.183zm26.353 18.338H21.514l4.973-6.84c.369-.506.256-1.216-.25-1.585s-1.216-.256-1.585.251l-3.59 4.938 2.328-14.968c1.43.949 3.081 1.589 4.858 1.828l.494 2.579-1.231 1.693c-.368.507-.256 1.217.25 1.585s1.217.256 1.585-.25l1.52-2.091c.185-.254.256-.573.197-.881l-.484-2.527h5.663c.04.38.061.764.061 1.151v15.118h.001zm10.513-31.538c-2.711 0-4.916-2.205-4.916-4.916s2.205-4.916 4.916-4.916 4.916 2.205 4.916 4.916-2.205 4.916-4.916 4.916z" fill="#000"/></svg>